<svg width="148" height="78" viewBox="0 0 148 78" fill="none" xmlns="http://www.w3.org/2000/svg">
<g clip-path="url(#clip0_1340_2005)">
<path d="M128.992 48.5994C128.992 50.7019 128.528 52.4518 127.617 53.8016C126.715 55.1545 125.581 56.1708 124.244 56.8251C122.92 57.4793 121.598 57.8128 120.322 57.8128C118.2 57.8128 116.428 57.0823 115.062 55.6436C113.703 54.1986 113.017 52.2263 113.017 49.7809V27.6797H107.027V50.1461C107.027 53.1473 107.526 55.6754 108.514 57.6635C109.505 59.6485 110.892 61.1602 112.636 62.1543C114.37 63.1293 116.377 63.6247 118.6 63.6247C121.287 63.6247 123.549 62.9864 125.321 61.7287C126.921 60.579 128.154 59.1848 128.992 57.5809V63.1706H134.982V27.6797H128.992V48.6026V48.5994Z" fill="white"/>
<path d="M98.0999 40.7815C96.7216 39.8033 95.2543 39.0188 93.7394 38.4504C92.2626 37.8946 90.9033 37.4499 89.6932 37.1292L84.9484 35.8524C84.0972 35.6301 83.1508 35.3348 82.1409 34.9759C81.1373 34.6075 80.1623 34.1343 79.2508 33.5753C78.3552 33.01 77.6088 32.3019 77.0308 31.4667C76.4782 30.6314 76.1987 29.6151 76.1987 28.4432C76.1987 27.0362 76.6052 25.7627 77.4087 24.6606C78.2313 23.5459 79.3969 22.6566 80.8642 22.0183C82.36 21.3736 84.1354 21.0464 86.1394 21.0464C88.877 21.0464 91.2145 21.6689 93.0915 22.9012C94.9367 24.1112 96.0038 25.8357 96.2642 28.0271L96.296 28.3066H102.352L102.34 27.9795C102.264 25.5785 101.508 23.403 100.101 21.5165C98.7129 19.6363 96.8073 18.1373 94.4412 17.0607C92.0815 15.9713 89.3471 15.4219 86.3204 15.4219C83.2937 15.4219 80.5688 15.9808 78.1329 17.0829C75.7033 18.1754 73.7374 19.7348 72.2892 21.7229C70.8473 23.7047 70.1168 26.0581 70.1168 28.7163C70.1168 31.9272 71.222 34.563 73.3976 36.5512C75.5413 38.5107 78.4854 40.0383 82.1472 41.0927L87.8671 42.7283C89.4773 43.1761 90.9985 43.7065 92.3864 44.3036C93.7425 44.888 94.8509 45.6534 95.6799 46.5839C96.4834 47.4859 96.8931 48.6832 96.8931 50.1409C96.8931 51.7543 96.4135 53.1835 95.4639 54.3903C94.5048 55.5972 93.1804 56.5563 91.5321 57.2423C89.8711 57.9188 87.9624 58.2618 85.8662 58.2618C84.0655 58.2618 82.3568 57.9918 80.7975 57.4615C79.2667 56.9215 77.9804 56.0958 76.98 55.0065C76.0018 53.9139 75.4333 52.5102 75.2904 50.8333L75.265 50.5443H68.8242L68.8496 50.8841C69.0338 53.4725 69.8405 55.7814 71.2475 57.7409C72.6671 59.7005 74.633 61.2472 77.0943 62.3397C79.5589 63.4258 82.5125 63.9785 85.8694 63.9785C89.4709 63.9785 92.5801 63.3655 95.105 62.1555C97.6585 60.9391 99.6275 59.2749 100.952 57.2074C102.295 55.1367 102.978 52.7897 102.978 50.2267C102.978 48.0004 102.511 46.0916 101.593 44.5513C100.682 43.0205 99.5068 41.7533 98.0999 40.7783V40.7815Z" fill="white"/>
<path d="M147.496 18.5531C147.496 17.467 147.08 16.5269 146.263 15.7583C145.463 14.9929 144.491 14.6055 143.367 14.6055C142.243 14.6055 141.265 14.9929 140.448 15.7615C139.645 16.5301 139.238 17.4702 139.238 18.5563C139.238 19.6425 139.645 20.5794 140.451 21.3511C141.265 22.1165 142.246 22.504 143.37 22.504C144.494 22.504 145.374 22.1515 146.149 21.4591L146.184 21.4274C146.213 21.402 146.241 21.3765 146.27 21.348L146.384 21.2368C147.127 20.4873 147.502 19.5853 147.502 18.5531H147.496Z" fill="white"/>
<path d="M146.318 27.6758H140.328V63.1669H146.318V27.6758Z" fill="white"/>
<path fill-rule="evenodd" clip-rule="evenodd" d="M48.255 32.903C51.3992 36.8507 53.2793 41.8432 53.2793 47.2741C53.2793 52.7049 51.342 57.8499 48.1153 61.8198L47.8358 62.1628L47.7627 61.7277C47.6992 61.3593 47.6262 60.9845 47.5404 60.6098C45.9239 53.5084 40.6582 47.4201 31.9911 42.4879C26.1379 39.1659 22.7873 35.1706 21.9075 30.6258C21.339 27.6881 21.7614 24.7377 22.5777 22.2096C23.3939 19.6848 24.6071 17.5664 25.6393 16.2929L29.0121 12.1705C29.6028 11.4464 30.7112 11.4464 31.3019 12.1705L48.2582 32.903H48.255ZM53.5874 28.7838L30.9875 1.15322C30.5556 0.626012 29.7489 0.626012 29.317 1.15322L6.72026 28.7838L6.64721 28.8759C2.48993 34.0368 0 40.5951 0 47.7346C0 64.3605 13.5009 77.8392 30.1522 77.8392C46.8036 77.8392 60.3045 64.3605 60.3045 47.7346C60.3045 40.5951 57.8146 34.0368 53.6573 28.8791L53.5842 28.787L53.5874 28.7838ZM12.1289 32.8141L14.1487 30.34L14.2091 30.7973C14.2567 31.1594 14.3171 31.5214 14.3869 31.8867C15.6954 38.7499 20.3672 44.4697 28.1768 48.9001C34.9669 52.7652 38.921 57.2084 40.058 62.0802C40.5343 64.1128 40.6169 66.1136 40.4105 67.8636L40.3978 67.9716L40.2993 68.0192C37.2346 69.5151 33.7887 70.3567 30.1491 70.3567C17.3787 70.3567 7.02515 60.0222 7.02515 47.2709C7.02515 41.7956 8.93388 36.7681 12.1225 32.8077L12.1289 32.8141Z" fill="white"/>
</g>
<defs>
<clipPath id="clip0_1340_2005">
<rect width="147.681" height="77.175" fill="white" transform="translate(0 0.753906)"/>
</clipPath>
</defs>
</svg>
